<svg xmlns="http://www.w3.org/2000/svg" width="27.012" height="27.012" viewBox="0 0 27.012 27.012">
  <defs>
    <style>
      .cls-1 {
        fill: #fffbf4;
      }
    </style>
  </defs>
  <path id="Icon_weather-moon-alt-waning-crescent-4" data-name="Icon weather-moon-alt-waning-crescent-4" class="cls-1" d="M4.488,17.328a13.306,13.306,0,0,1,1.068-5.244,13.633,13.633,0,0,1,2.88-4.308,13.489,13.489,0,0,1,14.8-2.88,13.688,13.688,0,0,1,4.32,2.88A13.647,13.647,0,0,1,31.5,17.328a13.263,13.263,0,0,1-1.068,5.244,13.688,13.688,0,0,1-2.88,4.32,13.231,13.231,0,0,1-4.32,2.88,13.408,13.408,0,0,1-10.488,0,13.633,13.633,0,0,1-4.308-2.88,13.231,13.231,0,0,1-2.88-4.32A13.306,13.306,0,0,1,4.488,17.328Zm1.44,0a11.855,11.855,0,0,0,.9,4.572,12.117,12.117,0,0,0,2.436,3.78,12.279,12.279,0,0,0,3.66,2.6,11.849,11.849,0,0,0,4.488,1.128A11.651,11.651,0,0,1,14.28,24.24a24.253,24.253,0,0,1-.9-6.912,20.177,20.177,0,0,1,1.1-6.648,16.036,16.036,0,0,1,3.072-5.4,12.094,12.094,0,0,0-10.08,6.132A11.8,11.8,0,0,0,5.928,17.328Z" transform="translate(-4.488 -3.828)"/>
</svg>
