<svg xmlns="http://www.w3.org/2000/svg" width="42.424" height="37.644" viewBox="0 0 42.424 37.644">
  <g id="Group_18" data-name="Group 18" transform="translate(-1336.411 -1045.439)">
    <g id="Icon_akar-hand" data-name="Icon akar-hand" transform="matrix(0.883, 0.469, -0.469, 0.883, 1349.298, 1038.509)">
      <path id="Path_47" data-name="Path 47" d="M30,24V12.75a2.215,2.215,0,0,0-2.22-2.25,2.178,2.178,0,0,0-2.28,2.25V8.25A2.215,2.215,0,0,0,23.28,6,2.187,2.187,0,0,0,21,8.25v-3A2.215,2.215,0,0,0,18.78,3,2.265,2.265,0,0,0,16.5,5.25v3A2.165,2.165,0,0,0,14.25,6,2.264,2.264,0,0,0,12,8.28V21M16.5,8.25V16.5M21,8.25V16.5m4.5-8.25V16.5" fill="none" stroke="#fffbf4" stroke-linecap="round" stroke-linejoin="round" stroke-width="2"/>
      <path id="Path_48" data-name="Path 48" d="M30,24c0,6-4.7,9-10.5,9s-7.794-1.5-12.294-9L4.85,20.093a2.348,2.348,0,0,1,1.321-3.471A2.486,2.486,0,0,1,8.9,17.45l3.1,3.6" fill="none" stroke="#fffbf4" stroke-linecap="round" stroke-linejoin="round" stroke-width="2"/>
    </g>
    <path id="Path_49" data-name="Path 49" d="M.031,1.472A6.546,6.546,0,0,1,4.518.068a6.174,6.174,0,0,1,4.331,1.6" transform="translate(1375.131 1059.119) rotate(92)" fill="none" stroke="#fffbf4" stroke-linecap="round" stroke-width="1.5"/>
    <path id="Path_50" data-name="Path 50" d="M.031,2.372S1.669-.022,6.489.069,12.7,2.61,12.7,2.61" transform="translate(1378.115 1057.214) rotate(92)" fill="none" stroke="#fffbf4" stroke-linecap="round" stroke-width="1.5"/>
  </g>
</svg>
