<svg id="humaaans_standing-16" data-name="humaaans/standing-16" xmlns="http://www.w3.org/2000/svg" width="277.764" height="446.313" viewBox="0 0 277.764 446.313">
  <g id="humaaan-4" transform="translate(0 0)">
    <g id="Head_Front_Curly" data-name="Head/Front/Curly" transform="translate(100.748)">
      <g id="Head" transform="translate(7.583 18.415)">
        <path id="Path_382" data-name="Path 382" d="M36.546,37.361c4.991-5.859,8.37-13.039,7.805-21.085C42.724-6.906,10.455-1.806,4.178,9.894S-1.354,51.272,6.759,53.363c3.235.834,10.127-1.209,17.142-5.437L19.5,79.075h26Z" transform="translate(0 0)" fill="#d5b496" fill-rule="evenodd"/>
      </g>
      <path id="hair" d="M32.74,27.254a5.623,5.623,0,0,1,3.938-3.993,5.187,5.187,0,0,1,1.449-.144c.175.007.224.057.305-.065a1.6,1.6,0,0,0,.087-.418,7.886,7.886,0,0,1,.294-.976A7.966,7.966,0,0,1,40.734,18.8a9.673,9.673,0,0,1,5.81-2.749,8.47,8.47,0,0,1,3.493.476,13.83,13.83,0,0,1,1.7.725c.165.083.7.489.868.463.183-.029.552-.485.7-.6a10.27,10.27,0,0,1,6.414-1.953c2.591.02,5.086.149,7.247,1.729a14.493,14.493,0,0,1,1.308,1.086c.218.2.43.414.632.633q.183.2.354.407c.194.236.163.313.434.149a5.387,5.387,0,0,1,3.459-.778,7.741,7.741,0,0,1,2.088.59c.227.1.752.484.993.488s.757-.355,1-.446a8.233,8.233,0,0,1,4.173-.386A10.776,10.776,0,0,1,85.5,20.244a5.5,5.5,0,0,1,1.516,1.379c.178.246.339.507.542.735.118.134.353.271.416.44a8.986,8.986,0,0,1,1.734-.766,4.272,4.272,0,0,1,2.44.093A9.7,9.7,0,0,1,96,24.859a10.925,10.925,0,0,1,1.425,1.913q.291.493.533,1.012a3.763,3.763,0,0,0,.234.527c.133.194.223.2.465.282a7.507,7.507,0,0,1,3.2,2.14,7.369,7.369,0,0,1,1.655,3.509,1.789,1.789,0,0,0,.066.432c.061.057.308.032.4.043a8.434,8.434,0,0,1,.961.169,7.93,7.93,0,0,1,1.689.607,8.826,8.826,0,0,1,4.326,5.166,10.481,10.481,0,0,1-.164,7.176,7.01,7.01,0,0,1-.533,1.051c-.127.205-.169.206-.086.421.092.239.261.472.37.706a10.131,10.131,0,0,1,.765,2.4,11.252,11.252,0,0,1,.132,4.147,5.988,5.988,0,0,1-.641,1.82,5.22,5.22,0,0,1-.561.814c-.11.131-.227.257-.35.377a2.334,2.334,0,0,0-.221.205c-.145.187-.176.033-.1.308a12.278,12.278,0,0,0,.488,1.135c.15.385.285.774.409,1.168a17.231,17.231,0,0,1,.6,2.434,7.644,7.644,0,0,1-.54,4.729,4.73,4.73,0,0,1-1.338,1.593,4.966,4.966,0,0,1-.879.534c-.159.076-.363.108-.436.262s.038.495.064.68a11.338,11.338,0,0,1-.133,4.885,6.749,6.749,0,0,1-2.675,3.59,8.322,8.322,0,0,1-8.319.236,8.733,8.733,0,0,1-1.857-1.276c-1.425,1.918-4.356,1.857-6.439,1.311a9.249,9.249,0,0,1-5.875-4.855c-1.64,2-5.082,1.349-6.219-.817a5.182,5.182,0,0,1-.525-1.705c-.043-.311-.015-.624-.048-.933a4.819,4.819,0,0,0-.454-1.155,6.375,6.375,0,0,1-.484-2.3,11.684,11.684,0,0,1,.088-1.236,4.247,4.247,0,0,0-.126-1.086,4.966,4.966,0,0,0,2.1-.263,4.152,4.152,0,0,0,1.625-1.143,9.485,9.485,0,0,0,2.045-3.823c.925-3.028.546-6.661-2.5-8.322-1.419-.774-5.669-.772-7.359-.389-1.777.4-3.791,4.323-3.89,4.691-.061.228-.03.51-.24.662-.46.334-1.22-.246-1.559-.532a6.151,6.151,0,0,1-1.366-1.817,22.482,22.482,0,0,1-1.874-4.6c-.346-1.225-.568-2.488-1.02-3.682a5.631,5.631,0,0,0-2.265-2.922,19.942,19.942,0,0,0-3.9-1.577,9.671,9.671,0,0,1-3.6-1.98,4.982,4.982,0,0,1-.618-.689c-.142-.2-.281-.576-.5-.7-.335-.195-.825.312-1.114.5a12.88,12.88,0,0,0-3.586,3.559,22.149,22.149,0,0,0-2.381,4.238c-.473,1.14-.769,2.6-1.6,3.534-.372.417-3.134.67-4.029.305a5.091,5.091,0,0,1-2.2-1.9,2.955,2.955,0,0,1-.25-1.937c.077-.391.235-.756.321-1.139a3.552,3.552,0,0,1,.3-.922,2.275,2.275,0,0,1,1.418-1.13,6.658,6.658,0,0,1-1.531-2.077,8.914,8.914,0,0,1-.793-2.706,3.285,3.285,0,0,1,.439-2.108,5.55,5.55,0,0,1,1.8-1.494,11.707,11.707,0,0,1-2.505-2.728A8.518,8.518,0,0,1,32.74,27.254Z" transform="translate(-32.497 -15.165)" fill="#f4e178" fill-rule="evenodd"/>
    </g>
    <g id="Bottom_Standing_Skinny-Jeans-Walk" data-name="Bottom/Standing/Skinny-Jeans-Walk" transform="translate(9.746 187.423)">
      <path id="Leg" d="M248.058,0,195.975,137.815,159.469,239.393H138.653L188.834,0Z" transform="translate(-95.324)" fill="#2249b7" fill-rule="evenodd"/>
      <path id="Leg-2" data-name="Leg" d="M112.529,0c.566,47.287.157,110.952,1.476,113.9q1.319,2.948,82.059,67.169l-10.729,18.244Q89.478,137.5,84.577,129.262C79.676,121.026,55.056,45.239,42.246,0Z" transform="translate(53.078)" fill="#2c58d5" fill-rule="evenodd"/>
      <g id="Accessories_Shoe_Flat-Pointy" data-name="Accessories/Shoe/Flat-Pointy" transform="matrix(-0.643, 0.766, -0.766, -0.643, 268.018, 193.346)">
        <path id="Shoe" d="M0,0,1.083,22.748H23.831Q40.01,11.374,66.077,4.333V0H24.914L10.832,2.166V0Z" transform="translate(0 0)" fill="#191847" fill-rule="evenodd"/>
      </g>
      <g id="Accessories_Shoe_Flat-Pointy-2" data-name="Accessories/Shoe/Flat-Pointy" transform="translate(0 236.143)">
        <path id="Shoe-2" data-name="Shoe" d="M66.077,43.329,64.993,20.581H42.246Q26.066,31.955,0,39v4.333H41.163l14.082-2.166v2.166Z" transform="translate(0 -20.581)" fill="#191847" fill-rule="evenodd"/>
      </g>
    </g>
    <g id="Body_Long-Sleeve" data-name="Body/Long-Sleeve" transform="translate(0 73.67)">
      <path id="Skin" d="M89,70.746,46.232,64.912A93.234,93.234,0,0,0,22.62,55.248c-2.022-.059-5.239.676-.447,4.671s9.655,8.414,8.8,10.547-5.311,1.339-6.049,4.618q-.738,3.279,21.7,1.066l34.7,13.758Zm134.353,9.9-23.72.089q39.014,87.8,40.685,91.937c2.507,6.212-2.8,15.672-5.066,20.756,7.388,3.306,6.6-8.937,15.92-4.6,8.506,3.957,14.977,11.128,24.8,5.064,1.208-.746,2.532-3.553-.667-5.746-7.97-5.465-19.455-15.03-21.007-18.178Q251.129,163.527,223.353,80.646Z" transform="translate(-19.674 0)" fill="#d5b496" fill-rule="evenodd"/>
      <path id="Clothes-Back" d="M0,106.373l18.609.386c8.163-40.824,35.26-64.691,90.056-51.014L120.692,3.3C69.343-7.951,21.975,8.857,7.715,64.338,4.023,78.7.788,93.7,0,106.373Z" transform="translate(147.98 111.385) rotate(175)" fill="#afb9c5" fill-rule="evenodd"/>
      <path id="Clothes" d="M97.394.017,69.255,6.462c0,48.4-15.417,79.276-23.324,114.859h76c1.071,12.3,1.728,24.933,2.07,37.913h56.9Q161.557,56.323,99.251,0H97.408Z" transform="translate(50.477)" fill="#c5cfd6" fill-rule="evenodd"/>
      <path id="Shade" d="M108.359,52.276q2.938,45.238-3.455,69.046h15.445c-2.121-24.357-5.863-47.373-11.99-69.046Z" transform="translate(52.053 0)" fill="rgba(0,0,0,0.1)" fill-rule="evenodd"/>
    </g>
  </g>
</svg>
