<svg xmlns="http://www.w3.org/2000/svg" width="352.93" height="395.212" viewBox="0 0 352.93 395.212">
  <g id="humaaans_sitting-3" data-name="humaaans/sitting-3" transform="matrix(0.899, 0.438, -0.438, 0.899, 140.313, -124.396)">
    <g id="A-Human_Sitting" data-name="A-Human/Sitting" transform="translate(334.982 416.968) rotate(180)">
      <g id="Head_Front_Short-Beard" data-name="Head/Front/Short-Beard" transform="translate(111.523 280.235)">
        <g id="Head" transform="translate(0.124 0)">
          <path id="Path_379" data-name="Path 379" d="M9.225,43C4.08,49.034.6,56.435,1.18,64.727,2.856,88.62,36.116,83.364,42.586,71.3s5.7-42.648-2.661-44.8c-3.335-.86-10.438,1.246-17.668,5.6L26.8,0H0Z" fill="#b28b67" fill-rule="evenodd"/>
        </g>
        <path id="Hair" d="M23.721,36.656q1.539-21.432,8.14-21.432c6.6,0,12.2,4.191,15.1,4.191,2.111,0,1.64-2.642.24-4.6-1.155-1.616-6.778-3.174-6.778-5.68s4.443-.567,4.443-2.053c0-2.458.781-7.08-3.486-7.08-4.318,0-16.7,1.574-18.82,7.982q-2.054,6.2-2.656,25.712a6.768,6.768,0,0,1-.8.047A6.7,6.7,0,0,1,14.423,22.25c-1.55-2.188-3.287-4.473-5.278-6.832C1.667,19.9-3.882,33.039,3.429,45.656c2.021,6.181,6.6,9.482,12,11.015a19.434,19.434,0,0,0,12.755.94c7.518-.645,14.232-2.937,16.134-4.3,0-7.118-1.379-9.23-13.159-9.043C28.264,42.74,26.039,40.107,23.721,36.656Z" transform="translate(0 25.432)" fill="#191847" fill-rule="evenodd"/>
      </g>
      <g id="Bottom_Sitting_Wheelchair" data-name="Bottom/Sitting/Wheelchair">
        <path id="Skin" d="M72.356,154.521c8.016,10.872,28.054,3.675,28.042-5.325C100.365,125.564,78.8,13.38,77.675,6.3s-13.187-9.4-13.89-.55c-1.118,14.082-3.194,62.9-1.116,85.608.607,6.634,1.247,13.046,1.891,19.052q-17-30.541-51.7-86.334L0,29.949q15.145,49.9,24.838,70.456c11.064,23.465,21.438,43.559,25.8,50.637C56.41,160.391,65.765,159.15,72.356,154.521Z" transform="translate(172.022 12.843)" fill="#b28b67" fill-rule="evenodd"/>
        <path id="Leg-Back" d="M0,0,5.714,113.333c4.118,19.6,38.972,10.5,38.958,0C44.639,89.49,30.317,7.127,30.307.023Z" transform="translate(172.941 61.267) rotate(-20)" fill="#2249b7" fill-rule="evenodd"/>
        <path id="Leg-Front" d="M188.684,105.813c0-29.633-12.989-99.287-13-105.813L144.222,1.061q8.25,90.841,6.958,91.457c-1.938.923-79.433-10.726-102.675-11.605C14.99,79.644,1.125,100.205,0,139.224H64.92q83.269-9.94,109.456-13.826C185.587,123.734,188.684,113.976,188.684,105.813Z" transform="translate(84.852 48.064)" fill="#2c58d5" fill-rule="evenodd"/>
        <g id="Objects_Seat_Cube-2" data-name="Objects/Seat/Cube-2" transform="matrix(0.97, -0.242, 0.242, 0.97, 175.686, 27.925)">
          <path id="Seat" d="M17.864,44.659h7.426A17.864,17.864,0,0,0,43.153,26.8V17.864A17.864,17.864,0,0,0,25.289,0H17.864A17.864,17.864,0,0,0,0,17.864V26.8A17.864,17.864,0,0,0,17.864,44.659ZM12.685,34.575A4.466,4.466,0,0,1,8.22,30.109V14.55a4.466,4.466,0,0,1,4.466-4.466H30.467a4.466,4.466,0,0,1,4.466,4.466V30.109a4.466,4.466,0,0,1-4.466,4.466Z" transform="translate(0)" fill="#c5cfd6" fill-rule="evenodd"/>
        </g>
        <g id="Accessories_Shoe_Flat-Sneaker" data-name="Accessories/Shoe/Flat-Sneaker" transform="translate(232.226 18.98)">
          <path id="shoe" d="M1.874,16.3A23.973,23.973,0,0,1,0,8.814,56.022,56.022,0,0,1,1.006,0H63.977q2.455,8.115-2.834,8.762T52.357,9.93L23.089,22.978a1.116,1.116,0,0,1-1.474-.565l-.012-.029L19.721,17.82q-4.9-2.284-7.957-2.284A18.019,18.019,0,0,0,4.9,17.545h0a2.233,2.233,0,0,1-2.96-1.1Q1.9,16.373,1.874,16.3Z" transform="translate(0 0)" fill="#e4e4e4" fill-rule="evenodd"/>
        </g>
        <rect id="Base" width="59.173" height="7.815" rx="3.5" transform="translate(233.343 11.165)" fill="#2f3676"/>
        <path id="Seat-2" data-name="Seat" d="M11.165,65.872H130.627a11.165,11.165,0,0,0,11.165-11.165V0H4.466A4.466,4.466,0,0,0,0,4.466V54.707A11.165,11.165,0,0,0,11.165,65.872Z" transform="translate(70.338 114.997)" fill="#2f3676" fill-rule="evenodd"/>
        <path id="Wheel-Stuff" d="M0,158.539H2.449a11.165,11.165,0,0,0,11.017-9.356L37.96,0H26.03" transform="translate(200.965 22.329)" fill="#2f3676" fill-rule="evenodd"/>
        <circle id="Front-Wheel" cx="20.097" cy="20.097" r="20.097" transform="translate(213.246)" fill="#191847"/>
        <g id="Wheel" transform="translate(0 2.233)">
          <path id="Path_380" data-name="Path 380" d="M84.852,0A84.852,84.852,0,1,0,169.7,84.852,84.852,84.852,0,0,0,84.852,0Zm0,15.631A69.221,69.221,0,1,1,15.631,84.852,69.221,69.221,0,0,1,84.852,15.631Z" fill="#191847" fill-rule="evenodd"/>
          <rect id="Wheel-Stuff-2" data-name="Wheel-Stuff" width="8.932" height="147.374" transform="translate(80.386 11.165)" fill="#191847"/>
          <rect id="Wheel-Stuff-3" data-name="Wheel-Stuff" width="8.932" height="147.375" rx="2" transform="translate(29.589 35.904) rotate(-45)" fill="#191847"/>
          <rect id="Wheel-Stuff-4" data-name="Wheel-Stuff" width="8.932" height="147.374" rx="2" transform="translate(11.165 89.318) rotate(-90)" fill="#191847"/>
          <rect id="Wheel-Stuff-5" data-name="Wheel-Stuff" width="8.932" height="147.375" rx="2" transform="translate(35.904 140.115) rotate(-135)" fill="#191847"/>
        </g>
      </g>
      <g id="Body_Hoodie" data-name="Body/Hoodie" transform="translate(22.511 102.541)">
        <path id="Skin-2" data-name="Skin" d="M174.86,99.305l35.614-26.152q14.489-3.91,24.21-9.728c1.531-1.395,3.381-4.22-2.968-3.732s-13.049.716-13.925-1.449,2.966-4.755,1.2-7.677q-1.771-2.922-16.732,14.653L166.988,79.844ZM38.122,98.4l23.331-.092Q39.844,28.553,38.122,24.285c-2.583-6.4,2.883-16.153,5.221-21.393C35.729-.516,36.54,12.1,26.935,7.634,18.168,3.555,11.5-3.836,1.369,2.414c-1.245.768-2.61,3.662.687,5.923,8.215,5.633,20.053,15.491,21.652,18.736Q26.98,33.71,38.122,98.4Z" transform="translate(0 0)" fill="#b28b67" fill-rule="evenodd"/>
        <path id="Coat-Back" d="M0,124.665l9.473,2.491c38.381-27.7,58.218-85.641,104.7-113.186L104.789,0C28.088,2.756,2.96,73.345,0,124.665Z" transform="translate(93.56 72.112) rotate(-5)" fill="#697db1" fill-rule="evenodd"/>
        <path id="Shirt" d="M0,0H85.423c3.9,0,3.168,5.636,2.6,8.48C81.514,41.305,56.093,76.689,56.093,123.414l-24.64,3.864C11.073,94.5,4.025,54.144,0,0Z" transform="translate(62.341 74.979)" fill="#dde3e9" fill-rule="evenodd"/>
        <path id="Coat-Front" d="M39.912,141.951a14.092,14.092,0,0,0-8.5,7.2c-9.006,16.25-5.753,25.2,3.871,28.138s18.208-3.117,33.542-3.117a15.432,15.432,0,0,0,2.292-.157l7.714-.44q33.2-112.508,18.311-150.127H29.9A229.33,229.33,0,0,0,18.469,0H.149Q-2.437,83.623,39.912,141.951Z" transform="translate(23.115 28.087)" fill="#697db1" fill-rule="evenodd"/>
        <path id="Shade" d="M14.641,38.521Q17.813,11.983,24.951,0H0Q6.97,16.253,14.641,38.521Z" transform="translate(53.02 51.533)" fill="rgba(0,0,0,0.1)" fill-rule="evenodd"/>
      </g>
    </g>
  </g>
</svg>
