<svg id="humaaans_sitting-6" data-name="humaaans/sitting-6" xmlns="http://www.w3.org/2000/svg" width="305.608" height="332" viewBox="0 0 305.608 332">
  <g id="A-Human_Sitting" data-name="A-Human/Sitting" transform="translate(0)">
    <g id="Head_Front_Caesar" data-name="Head/Front/Caesar" transform="translate(117.608)">
      <g id="Head" transform="translate(2 2)">
        <path id="Path_381" data-name="Path 381" d="M8.262,34.49C3.654,29.081.536,22.453,1.057,15.025c1.5-21.4,31.292-16.693,37.087-5.892s5.106,38.2-2.383,40.13c-2.987.77-9.349-1.116-15.825-5.019L24,73H0Z" fill="#ebc29b" fill-rule="evenodd"/>
      </g>
      <path id="Combined-Shape" d="M17.73,24.867A4.812,4.812,0,0,0,15,24a5.15,5.15,0,0,0-5,5,5.937,5.937,0,0,0,3.027,5.547C12.076,36.406,11.12,37.755,10,38,5.678,37.563,0,26.821,0,18,0,8.346,7.682,0,22,0,34.869,0,39.749,5.306,40,10c-5.515,1.516-15.151,2.1-29,2v1l12,1,2,6C21.818,19.762,19.544,21.945,17.73,24.867Z" transform="translate(0)" fill="#191847" fill-rule="evenodd"/>
    </g>
    <g id="Bottom_Sitting_Sweat-Pants" data-name="Bottom/Sitting/Sweat-Pants" transform="translate(32.608 158)">
      <g id="Objects_Seat_Ball" data-name="Objects/Seat/Ball" transform="translate(0 27)">
        <ellipse id="Ballsy-Ball" cx="77" cy="73.5" rx="77" ry="73.5" fill="#aeb4c6"/>
      </g>
      <path id="Skin" d="M152.371,130.493c-12.813-28.358-22.079-53.052-25.8-66.08-6.368-22.307-11.213-41.937-12.438-49.267-2.92-17.481,22.462-18.5,25.817-9.811,5.078,13.149,13.943,56.351,24.594,121.606ZM3.75,41.5c11.756-4.647,52.924-19.189,72.779-23.3,5.706-1.182,11.236-2.28,16.435-3.273,15.454-2.95,23.46,24.929,8.576,27.071C64.473,47.328,11.924,52.837,7.427,53.455,1.125,54.322-3.638,44.417,3.75,41.5Z" transform="translate(70.138 32.166)" fill="#ebc29b" fill-rule="evenodd"/>
      <path id="Leg-Back" d="M63.587,39.416,0,7.047V0H7.562q92.277,23.514,94.306,30.138.022.071.04.143L102,30.4c12.191,16.767,19.493,98.624,21.889,104.753l-23.362,3.485C91.591,105.5,63,82.418,63.76,42.729A13,13,0,0,1,63.587,39.416Z" transform="translate(109)" fill="#2249b7" fill-rule="evenodd"/>
      <path id="Leg-Front" d="M50.283,58.64c-5.818-1.165-11.176-2.2-15.76-3.008C4.909,50.438-3.726,34.586,1.38,0H55.942c8.913,2.56,55.232,21.985,79.265,32.316,15.906,6.838,10.892,31.488,1.884,37.9a.88.88,0,0,1-.5.781C88.137,91.083,49.805,80.545,37,83.912L31.077,65.228Z" transform="translate(64)" fill="#2c58d5" fill-rule="evenodd"/>
      <g id="Accessories_Shoe_Flat-Sneaker" data-name="Accessories/Shoe/Flat-Sneaker" transform="matrix(0.438, 0.899, -0.899, 0.438, 82.628, 66.525)">
        <path id="shoe" d="M1.678,6.07A21.472,21.472,0,0,0,0,12.774a50.177,50.177,0,0,0,.9,7.894H57.3q2.2-7.268-2.538-7.848t-7.87-1.047L20.68.087a1,1,0,0,0-1.321.506l-.011.026L17.663,4.707a17.984,17.984,0,0,1-7.127,2.046,16.139,16.139,0,0,1-6.152-1.8h0a2,2,0,0,0-2.652.985Q1.7,6,1.678,6.07Z" transform="translate(0 0)" fill="#e4e4e4" fill-rule="evenodd"/>
      </g>
      <g id="Accessories_Shoe_Flat-Sneaker-2" data-name="Accessories/Shoe/Flat-Sneaker" transform="translate(215 151.332)">
        <path id="shoe-2" data-name="shoe" d="M1.678,6.07A21.472,21.472,0,0,0,0,12.774a50.177,50.177,0,0,0,.9,7.894H57.3q2.2-7.268-2.538-7.848T46.9,11.774L20.68.087a1,1,0,0,0-1.321.506l-.011.026L17.663,4.707a17.984,17.984,0,0,1-7.127,2.046,16.139,16.139,0,0,1-6.152-1.8h0a2,2,0,0,0-2.652.985Q1.7,6,1.678,6.07Z" transform="translate(0)" fill="#e4e4e4" fill-rule="evenodd"/>
      </g>
    </g>
    <g id="Body_Trench-Coat" data-name="Body/Trench-Coat" transform="translate(0 53)">
      <path id="Skin-2" data-name="Skin" d="M200.6,19.8l30.187,25.592a85.863,85.863,0,0,1,21.023,10.2c1.281,1.342,2.757,3.982-2.885,3.149s-11.614-1.455-12.532.425,2.353,4.434.588,6.934q-1.765,2.5-14.034-14.137l-30.6-15.27ZM57.287,0,74.632,4.41Q39.8,62.964,37.381,66.3c-3.633,5-.994,14.663-.1,19.724-7.356,1.311-3.916-9.479-13.232-7.677-8.5,1.645-15.9,6.623-23.35-1-.916-.938-1.475-3.748,1.881-5,8.36-3.115,20.784-9.118,22.877-11.591Q29.741,55.694,57.287,0Z" transform="translate(0 79.371) rotate(-4)" fill="#ebc29b" fill-rule="evenodd"/>
      <path id="Back-Arm" d="M75.751,85.636a34.283,34.283,0,0,1,13.355,2,4.5,4.5,0,0,1,.048,8.513q1.374,1,2.772,1.993l-8.047,16.428C50.016,97.684,18.188,84.954,3.685,57.08-1.183,47.725.465,15.947,0,4.386L10.7,0C25.6,30.817,45.78,60.382,75.751,85.636Z" transform="translate(133.177 2.041)" fill="#afb9c5" fill-rule="evenodd"/>
      <path id="Shirt" d="M0,112.207q47.157,5.181,74.236,0c2.237-.428,2.138-10.069,1.1-12.7C59.185,58.5,48.56,28.481,48.56,0Q44.115,2.322,33,.7C13.086,30.047,3.933,63.724,0,112.207Z" transform="translate(95.608 1.703)" fill="#191847" fill-rule="evenodd"/>
      <path id="Coat-Front" d="M60.781,118.758A4.5,4.5,0,0,1,59.43,114.7l.521-2.954a4.5,4.5,0,0,1,3.9-3.688q.5-2.25.864-4.47c2.019-12.5-1.43-24.749-1.268-36.781Q39.325,87.381,20.17,137.871L1.283,132.313q1.081-4.016,2.239-7.933c-2.18-1.238-4.727-6.914-2.894-7.864a22.056,22.056,0,0,1,6.011-2.078Q32.616,36.2,91.6,0H102.97c-3.348,44.281,42.9,140.955,26.842,223.518-29.683,6.629-72.059-14-113.308,2.482,1.535-33.249,32.28-72.309,44.276-107.242Z" transform="translate(28.986)" fill="#c5cfd6" fill-rule="evenodd"/>
      <path id="Shade-Lapel" d="M9.222,0,4.063,15.865,14.452,27.759,5.063,37.106,27.779,76,0,37.183l9.222-9.424L0,17.248Z" transform="translate(115.491 1)" fill="rgba(0,0,0,0.1)" fill-rule="evenodd"/>
      <path id="Buttons" d="M4,8A4,4,0,1,1,8,4,4,4,0,0,1,4,8ZM9,31a4,4,0,1,1,4-4A4,4,0,0,1,9,31Zm1,23a4,4,0,1,1,4-4A4,4,0,0,1,10,54Z" transform="translate(132.608 84)" fill="rgba(0,0,0,0.4)" fill-rule="evenodd"/>
    </g>
  </g>
</svg>
